<?xml version="1.0" standalone="no"?>
<!DOCTYPE svg PUBLIC "-//W3C//DTD SVG 20010904//EN"
 "http://www.w3.org/TR/2001/REC-SVG-20010904/DTD/svg10.dtd">
<svg version="1.0" xmlns="http://www.w3.org/2000/svg"
 width="200.000000pt" height="159.000000pt" viewBox="0 0 200.000000 159.000000"
 preserveAspectRatio="xMidYMid meet">

<g transform="translate(0.000000,159.000000) scale(0.100000,-0.100000)"
fill="#000000" stroke="none">
<path d="M860 1353 c0 -10 -30 -48 -66 -84 -79 -80 -78 -94 7 -85 l59 7 0 -78
c0 -71 -3 -84 -37 -150 -32 -60 -36 -74 -25 -85 11 -11 18 -8 37 17 l24 29 3
-94 3 -95 28 -3 c32 -4 32 -4 12 -45 l-16 -32 33 37 33 38 155 2 155 3 3 78 3
77 -101 0 c-55 0 -100 3 -100 6 0 3 30 48 66 100 36 52 65 97 62 99 -2 2 -35
0 -73 -5 -39 -5 -78 -9 -87 -10 -36 0 -19 46 47 130 36 45 64 88 62 94 -4 12
-32 13 -89 4 -38 -7 -38 -7 -38 28 l0 34 -80 0 c-69 0 -80 -2 -80 -17z m-5
-73 c-8 -25 0 -25 140 -4 58 8 110 14 114 12 5 -2 -54 -81 -130 -177 -77 -96
-139 -170 -139 -165 1 5 34 70 75 144 47 84 70 136 62 138 -7 1 -55 -4 -107
-12 -52 -7 -97 -12 -99 -10 -4 4 79 94 87 94 2 0 0 -9 -3 -20z m185 -282 c0
-7 -5 -20 -10 -28 -8 -12 -10 -9 -10 13 0 15 5 27 10 27 6 0 10 -6 10 -12z"/>
<path d="M340 510 c-11 -7 -7 -10 18 -10 54 0 36 -20 -20 -22 l-53 -2 48 -3
c26 -2 47 -8 47 -14 0 -5 -21 -10 -47 -10 l-48 -1 40 -8 c22 -4 43 -6 48 -3 4
2 7 0 7 -5 0 -5 -19 -14 -42 -19 l-43 -11 38 -1 c56 -2 45 -19 -15 -24 l-53
-3 53 -2 c63 -2 62 -21 -1 -23 l-42 -1 35 -8 c19 -5 38 -6 42 -4 5 3 8 1 8 -4
0 -5 -19 -14 -42 -19 -38 -9 -28 -11 75 -12 l117 -1 0 25 c0 23 -4 25 -45 25
-25 0 -45 1 -45 3 0 1 7 37 15 80 8 43 15 81 15 83 0 8 -96 3 -110 -6z"/>
<path d="M630 510 c-11 -7 -7 -10 18 -10 54 0 36 -20 -20 -22 l-53 -2 48 -3
c26 -2 47 -8 47 -14 0 -5 -21 -10 -47 -10 l-48 -1 40 -8 c22 -4 43 -6 48 -3 4
2 7 0 7 -5 0 -5 -19 -14 -42 -19 l-43 -11 38 -1 c56 -2 45 -19 -15 -24 l-53
-3 53 -2 c63 -2 62 -21 -1 -23 l-42 -1 35 -8 c19 -5 38 -6 42 -4 5 3 8 1 8 -4
0 -5 -19 -14 -42 -19 -38 -9 -30 -11 70 -12 l112 -1 0 25 c0 23 -4 25 -41 25
-33 0 -40 3 -37 18 2 11 14 18 38 20 32 3 49 15 50 35 0 4 -16 7 -35 7 -28 0
-35 4 -35 20 0 17 7 20 44 20 39 0 44 3 48 25 l5 25 -91 0 c-50 0 -98 -5 -106
-10z"/>
<path d="M910 510 c-11 -7 -4 -10 28 -10 57 0 53 -18 -5 -23 l-48 -3 53 -2
c62 -2 70 -21 10 -23 l-43 -1 55 -11 55 -10 -45 -13 -45 -12 38 -1 c60 -2 33
-21 -31 -23 -57 -2 -57 -2 -9 -5 64 -5 60 -23 -5 -24 -29 -1 -44 -3 -33 -6 71
-15 72 -16 15 -28 l-55 -13 70 -1 c67 -1 71 0 97 31 l27 33 11 -32 c10 -27 17
-33 41 -33 16 0 29 1 29 3 0 1 -9 26 -20 55 -22 58 -22 57 28 120 l34 42 -30
0 c-23 0 -36 -8 -53 -32 l-23 -31 -15 31 c-14 30 -18 32 -65 32 -28 0 -58 -5
-66 -10z"/>
<path d="M1240 510 c-11 -7 -7 -10 18 -10 53 0 36 -19 -20 -23 l-53 -3 53 -2
c65 -2 69 -22 5 -23 -27 -1 -39 -3 -28 -6 74 -15 73 -14 30 -28 l-40 -13 40
-1 c52 -1 34 -19 -25 -24 l-45 -4 48 -1 c56 -2 64 -22 10 -23 -38 -1 -38 -1
-9 -9 16 -5 33 -7 38 -3 5 3 16 -4 24 -16 11 -15 26 -21 55 -21 75 0 99 29
118 141 14 85 15 81 -16 77 -26 -3 -28 -8 -43 -83 -14 -77 -16 -80 -44 -83
-32 -4 -32 -8 -10 126 l7 42 -49 0 c-27 0 -56 -5 -64 -10z"/>
<path d="M1570 509 c-20 -7 -16 -8 17 -6 33 2 39 0 31 -10 -6 -7 -34 -14 -62
-15 l-51 -2 48 -3 c26 -2 47 -8 47 -14 0 -5 -21 -10 -47 -10 l-48 -1 40 -8
c22 -4 43 -6 46 -4 4 2 9 -3 12 -11 4 -8 25 -24 48 -35 37 -19 40 -23 26 -37
-11 -11 -20 -12 -33 -5 -11 6 -45 7 -84 2 -53 -6 -54 -15 -2 -13 6 1 12 -2 12
-7 0 -12 49 -30 83 -30 57 0 108 51 88 89 -6 10 -26 28 -46 40 -42 24 -46 44
-7 40 15 -2 38 3 51 10 23 13 24 14 6 27 -20 15 -132 16 -175 3z"/>
<path d="M1545 410 c-15 -7 -10 -9 23 -9 26 -1 41 3 37 9 -7 12 -32 12 -60 0z"/>
<path d="M1543 373 c15 -2 37 -2 50 0 12 2 0 4 -28 4 -27 0 -38 -2 -22 -4z"/>
<path d="M1230 310 c-22 -7 -21 -8 13 -9 23 -1 36 3 32 9 -7 11 -10 11 -45 0z"/>
<path d="M1525 310 c-15 -7 -9 -9 25 -9 33 -1 41 2 30 9 -18 12 -28 12 -55 0z"/>
</g>
</svg>
